<svg width="403" height="402" viewBox="0 0 403 402" fill="none" xmlns="http://www.w3.org/2000/svg">
<path d="M171.337 378.416C172.559 378.679 173.578 378.832 174.395 378.874C175.186 378.912 175.88 378.781 176.477 378.484C177.049 378.18 177.566 377.693 178.031 377.02C178.464 376.368 178.937 375.47 179.45 374.329L180.519 374.559L178.656 381.91L154.064 376.614L155.392 369.148L156.461 369.379C156.458 370.63 156.532 371.645 156.684 372.423C156.805 373.222 157.064 373.877 157.46 374.389C157.856 374.9 158.435 375.304 159.197 375.602C159.958 375.899 160.963 376.182 162.21 376.45L164.54 376.952L169.35 354.613C169.52 353.823 169.606 353.176 169.609 352.67C169.611 352.165 169.502 351.742 169.283 351.401C169.037 351.056 168.661 350.761 168.154 350.519C167.616 350.297 166.907 350.064 166.027 349.821L166.199 349.019L178.877 351.749L178.705 352.551C177.803 352.41 177.073 352.333 176.517 352.32C175.955 352.332 175.501 352.461 175.155 352.706C174.778 352.971 174.492 353.375 174.295 353.919C174.072 354.457 173.862 355.185 173.665 356.101L168.97 377.906L171.337 378.416Z" fill="black"/>
<path d="M118.295 347.077L114.139 354.689C113.752 355.397 113.492 355.982 113.359 356.444C113.19 356.915 113.163 357.345 113.277 357.734C113.368 358.11 113.618 358.469 114.025 358.81C114.42 359.174 114.975 359.596 115.692 360.076L115.262 360.865L104.393 354.931L104.824 354.142C105.616 354.485 106.271 354.725 106.791 354.86C107.298 355.018 107.746 355.04 108.134 354.926C108.5 354.8 108.836 354.538 109.142 354.141C109.435 353.767 109.775 353.226 110.162 352.517L119.672 335.101C120.046 334.415 120.317 333.836 120.486 333.364C120.619 332.903 120.629 332.478 120.515 332.089C120.4 331.701 120.157 331.331 119.786 330.979C119.391 330.615 118.846 330.199 118.152 329.731L118.546 329.012L129.414 334.946L129.021 335.666C128.242 335.3 127.598 335.037 127.091 334.879C126.572 334.744 126.123 334.751 125.745 334.9C125.331 335.06 124.952 335.373 124.609 335.838C124.243 336.291 123.836 336.929 123.386 337.752L119.231 345.363L131.127 351.859L135.545 343.768C135.92 343.082 136.191 342.503 136.36 342.032C136.493 341.57 136.503 341.145 136.388 340.757C136.274 340.368 136.02 339.992 135.625 339.628C135.23 339.264 134.686 338.848 133.992 338.38L134.385 337.66L145.288 343.613L144.895 344.333C144.092 343.954 143.438 343.686 142.931 343.528C142.411 343.393 141.962 343.4 141.584 343.549C141.17 343.709 140.792 344.022 140.449 344.487C140.106 344.952 139.71 345.597 139.26 346.419L130.013 363.356C129.626 364.065 129.366 364.649 129.233 365.111C129.064 365.583 129.037 366.013 129.151 366.401C129.242 366.778 129.491 367.136 129.899 367.477C130.293 367.841 130.849 368.263 131.566 368.744L131.135 369.532L120.233 363.579L120.663 362.791C121.455 363.134 122.111 363.373 122.63 363.509C123.137 363.667 123.585 363.689 123.974 363.575C124.34 363.448 124.687 363.193 125.015 362.808C125.309 362.434 125.649 361.893 126.036 361.184L130.191 353.573L118.295 347.077Z" fill="black"/>
<path d="M83.5199 297.712L91.4095 305.896L90.819 306.465C90.5479 306.184 90.3219 305.95 90.1412 305.762C89.9417 305.593 89.7783 305.461 89.6512 305.366C89.4871 305.271 89.3506 305.186 89.2414 305.11C89.1136 305.053 88.9763 305.004 88.8297 304.965C88.5914 304.905 88.3704 304.901 88.1669 304.953C87.9266 305.003 87.7314 305.101 87.5814 305.246C87.0565 305.752 86.5241 306.663 85.9844 307.979L84.2206 312.284L92.3 320.664L97.4771 318.549C97.7556 318.425 98.0345 318.283 98.3137 318.122C98.556 317.961 98.7803 317.781 98.9865 317.582C99.4177 317.166 99.5831 316.681 99.4828 316.127C99.3824 315.572 98.9526 314.902 98.1935 314.114L98.784 313.545L104.939 319.928L104.348 320.498C103.95 320.122 103.559 319.848 103.175 319.675C102.791 319.502 102.286 319.447 101.659 319.509C101.013 319.59 100.198 319.796 99.2163 320.128C98.1973 320.459 96.8532 320.941 95.1841 321.573L73.0106 330.091L72.4141 329.473L82.9098 303.89C83.2566 303.049 83.5178 302.363 83.6933 301.832C83.8506 301.282 83.933 300.805 83.9404 300.4C83.9291 300.013 83.8434 299.661 83.6834 299.345C83.5054 299.011 83.254 298.656 82.9294 298.282L83.5199 297.712ZM83.3337 313.953L78.0543 326.206L90.4913 321.377L83.3337 313.953Z" fill="black"/>
<path d="M63.042 262.809L49.9109 291.418L65.5316 283.616C66.5567 283.104 67.3721 282.638 67.9779 282.219C68.5487 281.788 68.9507 281.34 69.1838 280.874C69.4169 280.409 69.4928 279.89 69.4115 279.32C69.3302 278.749 69.1209 278.068 68.7835 277.276L69.5173 276.909L74.1953 286.274L73.4614 286.641C72.9842 285.861 72.5536 285.261 72.1694 284.841C71.7503 284.41 71.2904 284.16 70.7896 284.089C70.2773 283.996 69.6833 284.06 69.0077 284.281C68.3088 284.514 67.4469 284.886 66.4218 285.398L48.8791 294.16C48.6109 294.789 48.4069 295.313 48.267 295.732C48.1038 296.163 48.0221 296.553 48.0219 296.903C47.9985 297.264 48.0391 297.607 48.1438 297.933C48.2252 298.271 48.3706 298.65 48.5801 299.069L47.7763 299.47L44.3726 292.656L56.0348 267.662L42.5807 274.382C40.1578 275.593 38.8588 276.722 38.6837 277.77C38.6486 278.166 38.6892 278.568 38.8055 278.975C38.8868 279.371 39.0904 279.954 39.4162 280.723L38.6124 281.124L33.9519 271.793L34.7557 271.392C35.1747 272.114 35.5355 272.633 35.8382 272.947C36.1292 273.239 36.4319 273.466 36.7463 273.629C37.6545 274.165 39.3084 273.834 41.708 272.635L62.7103 262.145L63.042 262.809Z" fill="black"/>
<path d="M22.4839 230.625L20.6774 219.085L21.565 218.946C21.7333 219.685 21.9091 220.303 22.0926 220.801C22.2503 221.304 22.4812 221.768 22.7853 222.195C23.0894 222.622 23.5004 223.059 24.0183 223.505C24.5065 223.929 25.1692 224.458 26.0064 225.091L35.6088 232.128L45.0065 220.179C45.93 219.007 46.6522 218.063 47.173 217.349C47.6898 216.609 48.0791 215.982 48.3411 215.466C48.599 214.925 48.7472 214.44 48.7857 214.013C48.7984 213.589 48.7734 213.092 48.7105 212.522L49.5209 212.395L51.6175 225.787L50.807 225.914L50.5425 224.729C50.3235 223.498 49.9052 222.931 49.2877 223.028C49.0304 223.068 48.6795 223.268 48.235 223.628C47.7905 223.987 47.2869 224.475 46.7242 225.09C46.1318 225.683 45.4932 226.403 44.8084 227.248C44.1196 228.068 43.4172 228.968 42.701 229.95L38.801 235.345L39.9025 236.319L48.1998 235.02C48.9974 234.895 49.6346 234.756 50.1113 234.602C50.5841 234.423 50.9418 234.182 51.1845 233.881C51.4232 233.553 51.5666 233.122 51.6147 232.588C51.633 232.031 51.6014 231.325 51.52 230.467L52.3304 230.341L54.2699 242.729L53.4594 242.856C53.271 241.989 53.0722 241.308 52.863 240.814C52.6538 240.319 52.3747 239.968 52.0257 239.759C51.6469 239.528 51.1814 239.417 50.629 239.424C50.0468 239.41 49.2927 239.475 48.3664 239.62L29.3018 242.605C28.53 242.726 27.9077 242.876 27.4349 243.055C26.9582 243.209 26.6005 243.449 26.3618 243.777C26.1231 244.104 25.9797 244.535 25.9316 245.07C25.8835 245.604 25.9002 246.3 25.9817 247.157L25.094 247.296L23.1364 234.793L24.0241 234.654C24.2165 235.546 24.4193 236.252 24.6326 236.772C24.816 237.271 25.0714 237.639 25.3987 237.878C25.7261 238.117 26.1422 238.249 26.6471 238.276C27.1481 238.276 27.7973 238.214 28.5949 238.089L37.6255 236.676L29.304 229.992C27.9787 228.934 26.9283 228.202 26.1531 227.796C25.3739 227.365 24.7398 227.187 24.251 227.264C23.8136 227.332 23.5142 227.524 23.3526 227.839C23.1871 228.129 23.133 228.625 23.1903 229.328L23.3715 230.486L22.4839 230.625Z" fill="black"/>
<path d="M31.8953 138.421C31.7487 139.002 31.6832 139.54 31.6987 140.034C31.7216 140.503 31.8531 141.018 32.0932 141.579C32.3157 142.107 32.6643 142.714 33.139 143.4C33.5961 144.053 34.2018 144.845 34.9561 145.777L42.7219 154.988L51.0681 157.483C51.8665 157.721 52.5302 157.865 53.059 157.915C53.5629 157.956 53.9968 157.869 54.3608 157.651C54.7322 157.409 55.0536 157.016 55.3249 156.472C55.5962 155.928 55.886 155.185 56.1943 154.245L56.9803 154.479L53.0766 167.541L52.2906 167.307C52.5316 166.319 52.6879 165.523 52.7596 164.919C52.8063 164.308 52.721 163.82 52.5036 163.456C52.2937 163.067 51.9254 162.754 51.3989 162.515C50.8798 162.251 50.1586 161.981 49.2354 161.705L41.8249 159.49L31.9618 162.617C30.1192 163.235 28.6605 163.751 27.5859 164.163C26.4938 164.544 25.6523 164.904 25.0615 165.244C24.4707 165.583 24.0533 165.934 23.8092 166.296C23.5476 166.626 23.3423 167.04 23.1932 167.539L22.3323 167.282L25.9004 155.343L26.7613 155.6L26.4481 156.648C26.1277 157.993 26.3293 158.773 27.0529 158.989C27.6268 159.161 28.3501 159.105 29.2228 158.823L40.5821 155.327L32.7492 146.341C32.2946 145.77 31.8303 145.414 31.3562 145.272C30.8572 145.123 30.4445 145.231 30.1181 145.595C29.7668 145.952 29.4233 146.692 29.0878 147.815L28.227 147.558L31.0345 138.164L31.8953 138.421Z" fill="black"/>
<path d="M49.2273 101.564C50.4154 99.8214 51.9107 98.414 53.7131 97.3419C55.5302 96.2484 57.4583 95.593 59.4975 95.3757C61.2109 95.2201 62.9679 95.3936 64.7685 95.8961C66.5691 96.3987 68.3085 97.2221 69.9869 98.3662C71.8589 99.6424 73.3749 101.117 74.535 102.79C75.6882 104.428 76.4575 106.165 76.843 108.004C77.2431 109.821 77.2491 111.685 76.861 113.595C76.4875 115.484 75.6993 117.31 74.4965 119.074C73.279 120.86 71.8522 122.283 70.216 123.342C68.5799 124.402 66.843 125.077 65.0053 125.369C63.1461 125.646 61.2331 125.539 59.2663 125.049C57.2995 124.559 55.3693 123.669 53.4758 122.378C51.6253 121.117 50.1307 119.657 48.9922 117.998C47.8537 116.339 47.1025 114.598 46.7385 112.774C46.353 110.935 46.3651 109.068 46.7748 107.173C47.1776 105.241 47.9951 103.372 49.2273 101.564ZM50.2983 102.767C49.6088 103.779 49.1854 104.908 49.0281 106.156C48.8492 107.389 48.9339 108.629 49.2821 109.875C49.4631 110.534 49.7737 111.234 50.2138 111.976C50.6687 112.696 51.21 113.427 51.838 114.17C52.4444 114.899 53.1413 115.61 53.9286 116.305C54.716 116.999 55.54 117.64 56.4007 118.226C58.617 119.737 60.7839 120.789 62.9013 121.381C65.0187 121.974 66.8599 122.047 68.4247 121.601C70.4022 121.058 71.9923 119.904 73.1952 118.14C73.8259 117.215 74.2479 116.226 74.461 115.174C74.6888 114.1 74.7034 113.038 74.5048 111.989C73.9109 108.653 71.3869 105.467 66.9328 102.43C64.8026 100.978 62.7037 99.9883 60.6362 99.4613C58.5833 98.9128 56.7456 98.8576 55.1231 99.2959C53.08 99.8887 51.4718 101.046 50.2983 102.767Z" fill="black"/>
<path d="M106.779 68.1752C107.839 69.5282 108.63 70.728 109.152 71.7745C109.678 72.7845 110.026 73.8191 110.194 74.8783C110.679 78.3689 108.994 81.6238 105.14 84.6429C102.147 86.9875 99.3629 87.9941 96.7876 87.6627C94.2124 87.3313 91.7284 85.6383 89.3356 82.5838L80.76 71.6365C80.2621 71.0009 79.8197 70.5205 79.4325 70.1953C79.0659 69.8539 78.6815 69.6588 78.2794 69.61C77.8977 69.5451 77.4698 69.6322 76.9955 69.8714C76.5052 70.0901 75.8955 70.4519 75.1664 70.9569L74.6123 70.2496L84.5448 62.469L85.0989 63.1763C84.4295 63.7998 83.9198 64.3315 83.5695 64.7712C83.2238 65.1744 83.0264 65.5771 82.9776 65.9793C82.9287 66.3814 83.0159 66.8094 83.239 67.2631C83.4666 67.6803 83.8292 68.2066 84.3271 68.8422L93.1194 80.0662C93.9866 81.1733 94.773 82.0293 95.4786 82.6344C96.1842 83.2395 96.9075 83.6984 97.6486 84.011C99.9129 84.9168 102.285 84.3981 104.766 82.455C106.098 81.4111 107.095 80.2337 107.755 78.9226C108.415 77.6116 108.652 76.3512 108.465 75.1413C108.318 74.3629 108.015 73.5749 107.555 72.777C107.1 71.9427 106.399 70.9207 105.452 69.7112L98.0322 60.2399C97.3417 59.3584 96.7386 58.673 96.223 58.1837C95.7074 57.6944 95.1982 57.3821 94.6952 57.2468C94.2128 57.0955 93.7001 57.1167 93.1571 57.3104C92.6347 57.4881 92.0192 57.8214 91.3105 58.3104L90.7565 57.6031L98.8747 51.2437L99.4288 51.9509C98.7755 52.595 98.2795 53.1655 97.9409 53.6623C97.6228 54.143 97.4612 54.6335 97.4561 55.1337C97.4715 55.6179 97.655 56.1688 98.0066 56.7866C98.3787 57.3883 98.91 58.1299 99.6005 59.0114L106.779 68.1752Z" fill="black"/>
<path d="M166.403 42.8966C166.057 42.0713 165.715 41.4198 165.377 40.9418C165.058 40.4322 164.683 40.0714 164.252 39.8593C163.847 39.6408 163.341 39.5555 162.735 39.6035C162.148 39.6198 161.425 39.738 160.567 39.9581L154.324 41.5603L156.752 51.0194C156.946 51.7761 157.143 52.3844 157.341 52.8442C157.565 53.2976 157.855 53.64 158.21 53.8715C158.584 54.0713 159.039 54.1695 159.576 54.1661C160.132 54.1311 160.832 54.032 161.677 53.8688L161.881 54.6634L149.812 57.7609L149.608 56.9664C150.402 56.7088 151.022 56.4554 151.469 56.2063C151.941 55.9507 152.265 55.6392 152.439 55.2718C152.633 54.8726 152.699 54.3985 152.639 53.8494C152.597 53.2686 152.46 52.5241 152.227 51.616L147.43 32.9249C147.236 32.1681 147.027 31.5631 146.803 31.1097C146.604 30.6499 146.331 30.3168 145.982 30.1106C145.633 29.9043 145.191 29.8029 144.654 29.8062C144.142 29.8031 143.489 29.8766 142.694 30.0269L142.471 29.1566L165.399 23.2722L167.068 29.458L166.046 29.7202C165.592 28.7882 165.164 28.0645 164.763 27.5491C164.355 27.0084 163.87 26.6357 163.306 26.4307C162.768 26.2194 162.095 26.1635 161.287 26.2633C160.505 26.3566 159.508 26.5587 158.297 26.8694L152.433 28.3745C151.827 28.5298 151.459 28.7185 151.328 28.9403C151.222 29.1557 151.25 29.5788 151.411 30.2094L153.868 39.782L160.111 38.1798C160.969 37.9597 161.662 37.728 162.191 37.4847C162.745 37.2349 163.148 36.9166 163.398 36.5297C163.673 36.1364 163.831 35.6522 163.872 35.0772C163.938 34.4957 163.924 33.76 163.83 32.87L164.851 32.6078L167.425 42.6344L166.403 42.8966Z" fill="black"/>
<path d="M202.538 19.2742C204.647 19.3254 206.641 19.8167 208.52 20.7481C210.425 21.6801 212.022 22.9433 213.312 24.5376C214.373 25.8919 215.182 27.4615 215.737 29.2464C216.293 31.0313 216.546 32.939 216.497 34.9697C216.442 37.2346 216.027 39.3085 215.252 41.1912C214.503 43.0486 213.461 44.6383 212.127 45.9604C210.818 47.2832 209.257 48.3002 207.442 49.0115C205.653 49.7235 203.692 50.0535 201.557 50.0016C199.396 49.949 197.427 49.5234 195.649 48.7247C193.871 47.9261 192.36 46.8344 191.117 45.4496C189.875 44.0388 188.926 42.3746 188.269 40.457C187.613 38.5394 187.312 36.4351 187.368 34.1441C187.422 31.9052 187.837 29.8574 188.611 28.0007C189.386 26.144 190.44 24.5676 191.774 23.2715C193.109 21.9494 194.683 20.9457 196.497 20.2604C198.338 19.5497 200.352 19.221 202.538 19.2742ZM202.11 20.8267C200.886 20.7969 199.708 21.0548 198.574 21.6004C197.442 22.1198 196.447 22.8641 195.59 23.8331C195.134 24.3431 194.715 24.9841 194.331 25.7563C193.974 26.529 193.654 27.3809 193.371 28.3118C193.088 29.2166 192.869 30.1882 192.714 31.2264C192.558 32.2645 192.468 33.3043 192.442 34.3457C192.377 37.0272 192.671 39.4178 193.323 41.5176C193.975 43.6175 194.914 45.2032 196.138 46.275C197.668 47.6407 199.5 48.3495 201.635 48.4014C202.754 48.4286 203.814 48.246 204.813 47.8535C205.839 47.4617 206.738 46.8974 207.511 46.1608C209.99 43.8506 211.295 40.0009 211.426 34.6119C211.489 32.0346 211.18 29.7347 210.5 27.7124C209.845 25.6907 208.894 24.1176 207.645 22.9931C206.038 21.5995 204.193 20.8773 202.11 20.8267Z" fill="black"/>
<path d="M260.154 60.7401L253.331 58.4785L247.572 42.0837L245.2 41.4206L242.422 49.8003C242.176 50.5418 242.012 51.1597 241.931 51.654C241.874 52.1564 241.932 52.601 242.106 52.9878C242.288 53.3498 242.605 53.6746 243.059 53.962C243.52 54.2248 244.151 54.5161 244.95 54.836L244.692 55.6146L232.975 51.7305L233.233 50.9519C234.049 51.1399 234.712 51.25 235.223 51.2821C235.758 51.3224 236.198 51.2352 236.544 51.0205C236.889 50.8058 237.185 50.4512 237.432 49.9567C237.686 49.4375 237.961 48.7329 238.256 47.8431L244.328 29.5264C244.573 28.7848 244.733 28.1793 244.806 27.7097C244.888 27.2155 244.85 26.7915 244.693 26.4376C244.536 26.0838 244.231 25.7631 243.777 25.4756C243.349 25.1963 242.751 24.8885 241.985 24.5521L242.267 23.6993L253.947 27.5711C256.023 28.2594 257.783 29.1583 259.226 30.2676C260.702 31.3604 261.68 32.5076 262.159 33.7092C262.49 34.4498 262.652 35.2442 262.645 36.0924C262.646 36.9159 262.504 37.7603 262.217 38.6254C261.578 40.5535 260.468 41.8729 258.888 42.5838C257.333 43.3028 255.118 43.4876 252.243 43.1383L257.392 56.7795C257.756 57.6683 258.153 58.3346 258.582 58.7786C259.035 59.2308 259.645 59.6251 260.412 59.9615L260.154 60.7401ZM245.716 39.8633C246.713 40.1663 247.578 40.4119 248.311 40.6001C249.069 40.7965 249.736 40.9354 250.313 41.0168C250.922 41.0817 251.491 41.1055 252.018 41.0881C252.545 41.0708 253.101 41.0081 253.685 40.9001C254.591 40.7339 255.389 40.3126 256.079 39.6361C256.778 38.935 257.304 38.053 257.656 36.9901C258.32 34.9878 258.173 33.3205 257.216 31.988C256.291 30.6389 254.469 29.5137 251.75 28.6124C250.91 28.3338 250.317 28.2606 249.971 28.393C249.633 28.5006 249.366 28.851 249.17 29.4443L245.716 39.8633Z" fill="black"/>
<path d="M341.339 86.0801C340.845 85.7259 340.414 85.4551 340.048 85.2678C339.699 85.099 339.359 84.9947 339.028 84.955C338.697 84.9152 338.338 84.9581 337.95 85.0836C337.562 85.2091 337.091 85.3984 336.536 85.6513C334.41 86.6087 332.571 87.4304 331.018 88.1166C329.483 88.8213 328.087 89.4628 326.83 90.041C325.591 90.601 324.445 91.125 323.391 91.613C322.355 92.1195 321.264 92.644 320.118 93.1864C318.971 93.7288 317.713 94.3439 316.345 95.0316C314.995 95.7012 313.413 96.4883 311.601 97.3932L311.135 96.9195L319.61 78.6249L301.306 86.9169L300.841 86.4433L311.898 63.5307C312.367 62.4852 312.724 61.6228 312.97 60.9436C313.215 60.2644 313.349 59.6763 313.372 59.1793C313.432 58.6826 313.362 58.24 313.163 57.8516C313 57.4635 312.737 57.0468 312.373 56.6017L313.013 55.972L320.679 63.7734L320.038 64.4031C319.216 63.6409 318.585 63.1842 318.145 63.033C317.722 62.8636 317.344 62.9432 317.01 63.2717C316.824 63.4542 316.638 63.692 316.451 63.985C316.283 64.2966 316.095 64.6632 315.889 65.0849L308.426 81.4548L320.765 76.0109L322.316 72.406C322.674 71.5068 322.938 70.7725 323.109 70.2031C323.317 69.6341 323.404 69.1469 323.37 68.7414C323.356 68.3178 323.23 67.93 322.994 67.578C322.776 67.2446 322.448 66.855 322.01 66.4092L322.651 65.7795L330.973 74.2497L330.333 74.8794C329.511 74.0435 328.816 73.5218 328.247 73.3143C327.696 73.1253 327.244 73.2042 326.891 73.551C326.724 73.7153 326.538 73.9714 326.332 74.3195C326.127 74.6676 325.92 75.0893 325.714 75.5847L325.122 76.933L318.417 91.7904L333.06 85.1789C334.373 84.5827 335.354 83.9652 336.004 83.3264C336.431 82.9066 336.573 82.4382 336.431 81.9214C336.325 81.4048 335.907 80.7014 335.179 79.8111L335.819 79.1814L341.979 85.4504L341.339 86.0801Z" fill="black"/>
<path d="M344.601 148.977L339.839 138.655L340.584 138.311C340.748 138.666 340.884 138.962 340.993 139.198C341.126 139.424 341.237 139.602 341.326 139.733C341.449 139.877 341.55 140.002 341.629 140.109C341.73 140.206 341.844 140.297 341.97 140.382C342.175 140.517 342.382 140.593 342.592 140.612C342.835 140.643 343.052 140.614 343.241 140.527C343.903 140.222 344.705 139.536 345.648 138.471L348.728 134.984L343.852 124.414L338.267 124.711C337.964 124.736 337.654 124.779 337.337 124.839C337.055 124.911 336.784 125.008 336.524 125.128C335.98 125.379 335.665 125.782 335.577 126.339C335.49 126.895 335.675 127.67 336.133 128.663L335.388 129.007L331.674 120.955L332.419 120.612C332.672 121.097 332.951 121.485 333.256 121.774C333.562 122.063 334.021 122.282 334.634 122.429C335.27 122.566 336.107 122.639 337.144 122.648C338.215 122.67 339.643 122.657 341.427 122.608L365.168 121.851L365.528 122.631L347.207 143.343C346.603 144.024 346.131 144.586 345.791 145.029C345.462 145.497 345.227 145.92 345.087 146.3C344.97 146.67 344.936 147.03 344.983 147.381C345.041 147.756 345.162 148.173 345.346 148.633L344.601 148.977ZM350.115 133.7L359.128 123.863L345.795 124.336L350.115 133.7Z" fill="black"/>
<path d="M377.87 166.976C377.685 165.74 377.468 164.732 377.22 163.953C376.976 163.2 376.609 162.596 376.12 162.143C375.634 161.715 374.995 161.403 374.202 161.205C373.438 161.03 372.432 160.904 371.183 160.828L371.021 159.746L378.556 158.895L382.281 183.774L374.826 185.166L374.665 184.084C375.836 183.646 376.76 183.218 377.435 182.801C378.139 182.406 378.661 181.933 379 181.382C379.338 180.831 379.513 180.146 379.522 179.329C379.531 178.511 379.441 177.471 379.252 176.209L378.9 173.853L356.3 177.236C355.501 177.355 354.865 177.503 354.391 177.679C353.917 177.856 353.56 178.107 353.319 178.432C353.082 178.784 352.94 179.24 352.892 179.8C352.874 180.382 352.906 181.127 352.99 182.036L352.178 182.158L350.258 169.332L351.07 169.211C351.256 170.104 351.441 170.814 351.625 171.339C351.835 171.861 352.116 172.24 352.467 172.477C352.848 172.736 353.328 172.862 353.906 172.854C354.488 172.872 355.243 172.812 356.17 172.673L378.229 169.371L377.87 166.976Z" fill="black"/>
<path d="M370.938 231.703C371.688 231.588 372.334 231.461 372.877 231.32C373.446 231.183 373.952 231.024 374.395 230.844C374.861 230.694 375.279 230.498 375.651 230.256C376.02 230.041 376.409 229.776 376.816 229.46C377.833 228.697 378.633 227.775 379.217 226.695C379.824 225.643 380.208 224.485 380.369 223.219C380.574 221.617 380.45 220.118 379.998 218.722C379.543 217.351 378.794 216.127 377.75 215.048C376.729 213.999 375.436 213.125 373.871 212.427C372.306 211.728 370.529 211.252 368.54 210.998C365.957 210.668 363.652 210.729 361.626 211.179C359.599 211.629 357.961 212.431 356.711 213.584C354.914 215.324 353.844 217.537 353.501 220.223C353.267 222.057 353.4 223.794 353.9 225.433C354.399 227.072 355.331 228.818 356.696 230.673L355.822 231.349C354.211 229.778 353.049 227.884 352.334 225.666C351.616 223.474 351.419 221.113 351.742 218.581C352.022 216.385 352.639 214.429 353.593 212.714C354.547 210.998 355.753 209.576 357.209 208.449C358.691 207.326 360.396 206.52 362.322 206.03C364.245 205.567 366.33 205.479 368.578 205.766C371.135 206.092 373.378 206.824 375.307 207.963C377.261 209.105 378.827 210.618 380.005 212.501C380.918 213.982 381.565 215.601 381.945 217.356C382.35 219.114 382.444 220.845 382.227 222.55C381.947 224.746 381.308 226.87 380.311 228.922C379.96 229.612 379.757 230.177 379.701 230.616C379.645 231.055 379.726 231.446 379.945 231.789C380.161 232.158 380.493 232.436 380.941 232.625L380.822 233.555L370.81 232.71L370.938 231.703Z" fill="black"/>
<path d="M353.26 273.003L361.168 276.56C361.905 276.891 362.508 277.106 362.978 277.203C363.461 277.335 363.892 277.329 364.271 277.185C364.639 277.065 364.978 276.789 365.286 276.357C365.619 275.935 365.997 275.348 366.421 274.597L367.24 274.965L362.16 286.258L361.341 285.89C361.622 285.074 361.81 284.402 361.905 283.873C362.024 283.356 362.011 282.907 361.867 282.529C361.713 282.174 361.426 281.859 361.007 281.585C360.612 281.321 360.046 281.024 359.31 280.693L341.213 272.552C340.5 272.231 339.902 272.005 339.419 271.874C338.949 271.776 338.524 271.799 338.145 271.943C337.767 272.087 337.416 272.358 337.095 272.756C336.762 273.177 336.389 273.752 335.976 274.48L335.228 274.143L340.308 262.85L341.056 263.187C340.751 263.992 340.539 264.653 340.421 265.171C340.326 265.7 340.367 266.147 340.546 266.512C340.737 266.912 341.078 267.266 341.568 267.572C342.048 267.902 342.715 268.259 343.57 268.644L351.479 272.201L357.039 259.84L348.632 256.058C347.92 255.737 347.322 255.511 346.839 255.38C346.368 255.282 345.944 255.306 345.565 255.449C345.186 255.593 344.831 255.876 344.498 256.297C344.166 256.719 343.793 257.294 343.38 258.021L342.632 257.685L347.728 246.356L348.476 246.693C348.16 247.522 347.943 248.195 347.824 248.713C347.729 249.241 347.771 249.688 347.949 250.054C348.14 250.454 348.481 250.807 348.972 251.114C349.462 251.42 350.135 251.765 350.99 252.15L368.588 260.066C369.324 260.398 369.928 260.612 370.398 260.709C370.881 260.841 371.312 260.835 371.691 260.691C372.059 260.571 372.397 260.295 372.706 259.863C373.038 259.441 373.417 258.855 373.84 258.103L374.66 258.471L369.564 269.8L368.744 269.431C369.026 268.616 369.214 267.943 369.309 267.415C369.427 266.897 369.415 266.449 369.271 266.07C369.117 265.715 368.835 265.389 368.427 265.091C368.031 264.827 367.465 264.53 366.729 264.199L358.821 260.641L353.26 273.003Z" fill="black"/>
<path d="M343.521 306.143C344.181 306.653 344.738 307.017 345.194 307.237C345.633 307.478 346.061 307.562 346.479 307.49C346.897 307.418 347.322 307.187 347.755 306.797C348.187 306.407 348.711 305.858 349.325 305.147L350.036 305.697L341.941 316.176L341.23 315.627C341.783 314.869 342.182 314.224 342.43 313.691C342.697 313.174 342.813 312.704 342.778 312.282C342.742 311.859 342.55 311.448 342.202 311.047C341.874 310.662 341.39 310.223 340.751 309.729L325.047 297.598C324.409 297.105 323.851 296.74 323.375 296.504C322.904 296.305 322.46 296.241 322.042 296.313C321.624 296.385 321.189 296.608 320.735 296.982C320.303 297.372 319.798 297.919 319.22 298.625L318.571 298.123L326.666 287.644L327.315 288.145C326.762 288.903 326.352 289.54 326.085 290.057C325.837 290.59 325.74 291.058 325.791 291.46C325.827 291.882 326.009 292.286 326.336 292.671C326.664 293.056 327.158 293.503 327.817 294.012L343.521 306.143Z" fill="black"/>
<path d="M291.118 323.427L321.869 330.158L310.916 316.56C310.198 315.667 309.569 314.97 309.03 314.467C308.488 314.001 307.964 313.704 307.46 313.576C306.955 313.447 306.432 313.484 305.892 313.685C305.352 313.886 304.731 314.235 304.029 314.734L303.514 314.095L311.667 307.528L312.182 308.167C311.521 308.8 311.027 309.348 310.699 309.813C310.367 310.314 310.22 310.817 310.258 311.321C310.276 311.842 310.465 312.409 310.825 313.022C311.202 313.655 311.749 314.418 312.468 315.31L324.769 330.582C325.44 330.709 325.995 330.797 326.435 330.844C326.891 330.912 327.289 330.909 327.631 330.834C327.988 330.78 328.315 330.667 328.612 330.496C328.924 330.344 329.263 330.121 329.628 329.827L330.192 330.527L324.26 335.305L297.354 329.239L306.788 340.951C308.487 343.06 309.867 344.089 310.928 344.037C311.323 343.986 311.707 343.861 312.08 343.661C312.45 343.497 312.975 343.174 313.657 342.691L314.22 343.391L306.098 349.934L305.534 349.234C306.151 348.671 306.58 348.207 306.823 347.845C307.046 347.498 307.203 347.154 307.295 346.812C307.626 345.811 306.949 344.265 305.267 342.176L290.54 323.893L291.118 323.427Z" fill="black"/>
<path d="M250.74 361.106C251.328 360.822 251.793 360.544 252.134 360.272C252.461 360.033 252.686 359.75 252.811 359.423C252.92 359.129 252.931 358.761 252.844 358.32C252.766 357.904 252.609 357.392 252.374 356.785L249.11 348.373C249.381 347.848 249.847 347.249 250.507 346.574C251.176 345.923 251.952 345.259 252.834 344.581C253.702 343.937 254.629 343.34 255.617 342.789C256.57 342.224 257.496 341.767 258.395 341.418C260.701 340.523 262.984 340.071 265.242 340.06C267.476 340.059 269.568 340.519 271.517 341.438C273.163 342.224 274.571 343.298 275.742 344.659C276.913 346.021 277.889 347.709 278.671 349.724C279.5 351.861 279.906 353.952 279.89 355.997C279.883 358.067 279.51 359.985 278.771 361.753C278.007 363.529 276.905 365.116 275.464 366.513C273.999 367.92 272.222 369.028 270.134 369.838C268.24 370.573 266.224 370.992 264.086 371.096C263.171 371.115 262.496 371.21 262.059 371.379C261.622 371.549 261.285 371.833 261.049 372.232C260.813 372.631 260.709 373.048 260.738 373.484L259.864 373.823L256.095 365.188L257.042 364.82C257.554 365.348 258.008 365.8 258.406 366.176C258.813 366.577 259.208 366.913 259.592 367.183C259.962 367.486 260.324 367.737 260.68 367.934C261.045 368.155 261.442 368.35 261.871 368.519C264.115 369.408 266.415 369.396 268.77 368.482C270.275 367.898 271.558 367.065 272.619 365.983C273.655 364.911 274.411 363.654 274.885 362.213C275.33 360.839 275.472 359.192 275.313 357.27C275.164 355.373 274.726 353.489 274.001 351.62C273.248 349.678 272.314 348.028 271.202 346.672C270.098 345.341 268.866 344.324 267.505 343.624C266.143 342.923 264.682 342.54 263.121 342.475C261.535 342.42 259.892 342.722 258.193 343.382C257.44 343.674 256.76 344.008 256.151 344.383C255.528 344.793 255.004 345.206 254.579 345.622C254.154 346.038 253.852 346.449 253.674 346.853C253.505 347.282 253.486 347.666 253.618 348.006L256.232 354.743C256.524 355.496 256.796 356.089 257.048 356.522C257.3 356.955 257.606 357.241 257.968 357.38C258.314 357.553 258.749 357.594 259.272 357.502C259.805 357.435 260.493 357.266 261.338 356.994L261.634 357.759L251.037 361.871L250.74 361.106Z" fill="black"/>
</svg>
