<svg width="747" height="747" viewBox="0 0 747 747" fill="none" xmlns="http://www.w3.org/2000/svg">
<path d="M366.493 717.264C366.697 717.994 366.901 718.621 367.105 719.143C367.31 719.691 367.528 720.175 367.76 720.593C367.965 721.037 368.21 721.429 368.494 721.77C368.752 722.11 369.062 722.464 369.424 722.831C370.303 723.748 371.314 724.432 372.457 724.883C373.574 725.359 374.77 725.602 376.046 725.61C377.66 725.622 379.134 725.319 380.466 724.703C381.773 724.087 382.898 723.196 383.844 722.031C384.763 720.891 385.476 719.503 385.982 717.866C386.488 716.228 386.748 714.407 386.761 712.402C386.779 709.798 386.443 707.517 385.753 705.559C385.063 703.601 384.071 702.071 382.777 700.968C380.834 699.393 378.509 698.595 375.801 698.577C373.952 698.564 372.244 698.904 370.676 699.597C369.109 700.289 367.487 701.424 365.809 703.001L365.033 702.215C366.4 700.427 368.141 699.046 370.257 698.07C372.347 697.095 374.668 696.616 377.22 696.633C379.434 696.649 381.449 697.027 383.267 697.768C385.085 698.51 386.641 699.536 387.934 700.847C389.227 702.184 390.232 703.78 390.948 705.634C391.639 707.487 391.976 709.547 391.961 711.812C391.943 714.39 391.485 716.705 390.585 718.756C389.686 720.834 388.372 722.569 386.643 723.964C385.282 725.048 383.753 725.884 382.056 726.472C380.359 727.085 378.651 727.386 376.932 727.374C374.719 727.359 372.534 726.98 370.377 726.236C369.65 725.971 369.065 725.836 368.622 725.833C368.18 725.83 367.801 725.958 367.487 726.216C367.147 726.474 366.91 726.837 366.776 727.305L365.839 727.299L365.478 717.257L366.493 717.264Z" fill="black"/>
<path d="M319.834 723.364C317.756 723.007 315.854 722.231 314.131 721.037C312.381 719.838 310.984 718.356 309.94 716.591C309.087 715.097 308.515 713.427 308.224 711.58C307.934 709.733 307.961 707.809 308.304 705.807C308.688 703.574 309.4 701.583 310.44 699.833C311.451 698.104 312.712 696.682 314.225 695.568C315.712 694.449 317.405 693.67 319.303 693.23C321.176 692.785 323.165 692.744 325.27 693.105C327.4 693.471 329.287 694.179 330.93 695.227C332.573 696.276 333.909 697.575 334.937 699.126C335.961 700.702 336.659 702.487 337.03 704.479C337.401 706.472 337.393 708.597 337.005 710.856C336.625 713.063 335.918 715.029 334.882 716.754C333.846 718.478 332.574 719.885 331.065 720.973C329.553 722.087 327.849 722.852 325.955 723.266C324.031 723.702 321.99 723.734 319.834 723.364ZM320.484 721.89C321.69 722.098 322.894 722.014 324.094 721.639C325.291 721.289 326.383 720.697 327.372 719.863C327.896 719.425 328.404 718.851 328.896 718.143C329.362 717.431 329.803 716.634 330.218 715.754C330.629 714.9 330.987 713.971 331.291 712.966C331.596 711.962 331.837 710.946 332.013 709.919C332.467 707.276 332.524 704.868 332.184 702.696C331.843 700.523 331.145 698.818 330.09 697.58C328.775 696.006 327.065 695.039 324.96 694.677C323.857 694.488 322.782 694.514 321.736 694.758C320.665 694.996 319.693 695.424 318.821 696.04C316.032 697.966 314.182 701.585 313.27 706.898C312.833 709.439 312.804 711.759 313.184 713.859C313.537 715.954 314.25 717.649 315.323 718.943C316.71 720.555 318.431 721.538 320.484 721.89Z" fill="black"/>
<path d="M263.297 677.505L273.84 707.166L279.593 690.679C279.97 689.597 280.23 688.695 280.372 687.972C280.48 687.266 280.456 686.664 280.298 686.168C280.14 685.671 279.833 685.247 279.377 684.895C278.921 684.542 278.295 684.2 277.501 683.868L277.771 683.093L287.656 686.542L287.386 687.317C286.499 687.09 285.772 686.961 285.204 686.928C284.603 686.911 284.099 687.053 283.691 687.352C283.259 687.642 282.878 688.102 282.548 688.732C282.209 689.386 281.851 690.254 281.474 691.336L275.014 709.85C275.26 710.488 275.479 711.006 275.671 711.404C275.855 711.826 276.069 712.163 276.312 712.413C276.547 712.688 276.816 712.906 277.118 713.067C277.412 713.252 277.781 713.422 278.223 713.577L277.927 714.425L270.735 711.916L261.66 685.87L256.706 700.07C255.814 702.627 255.67 704.342 256.276 705.216C256.527 705.524 256.836 705.783 257.204 705.994C257.538 706.222 258.09 706.497 258.86 706.821L258.564 707.669L248.717 704.233L249.013 703.385C249.817 703.61 250.437 703.73 250.873 703.744C251.285 703.75 251.66 703.702 251.999 703.599C253.024 703.35 253.978 701.959 254.862 699.427L262.596 677.261L263.297 677.505Z" fill="black"/>
<path d="M216.9 688.425C218.003 689.013 218.941 689.44 219.715 689.704C220.465 689.957 221.169 690.022 221.824 689.899C222.457 689.764 223.089 689.437 223.72 688.918C224.316 688.409 225.016 687.676 225.822 686.719L226.787 687.233L222.981 693.792L200.782 681.957L204.106 675.141L205.071 675.656C204.725 676.858 204.518 677.855 204.451 678.645C204.349 679.446 204.418 680.147 204.658 680.748C204.899 681.348 205.345 681.896 205.996 682.39C206.647 682.885 207.535 683.433 208.661 684.033L210.764 685.154L221.515 664.989C221.894 664.277 222.155 663.678 222.296 663.192C222.436 662.706 222.448 662.27 222.33 661.882C222.189 661.482 221.908 661.097 221.486 660.724C221.03 660.363 220.412 659.945 219.632 659.47L220.018 658.746L231.462 664.847L231.076 665.571C230.247 665.188 229.567 664.914 229.035 664.749C228.491 664.607 228.02 664.606 227.62 664.747C227.185 664.899 226.798 665.209 226.46 665.678C226.098 666.134 225.697 666.776 225.256 667.603L214.763 687.286L216.9 688.425Z" fill="black"/>
<path d="M171.779 627.27L180.917 634.031L180.429 634.691C180.115 634.459 179.854 634.265 179.644 634.11C179.42 633.976 179.237 633.873 179.095 633.801C178.918 633.735 178.769 633.673 178.649 633.617C178.513 633.581 178.37 633.556 178.219 633.541C177.974 633.522 177.755 633.555 177.563 633.639C177.335 633.729 177.158 633.858 177.034 634.026C176.601 634.612 176.227 635.598 175.913 636.986L174.888 641.524L184.246 648.448L189 645.503C189.254 645.334 189.505 645.148 189.754 644.943C189.966 644.744 190.158 644.529 190.328 644.299C190.684 643.817 190.767 643.311 190.576 642.781C190.385 642.251 189.85 641.661 188.971 641.01L189.459 640.351L196.587 645.625L196.099 646.284C195.644 645.98 195.213 645.775 194.806 645.668C194.399 645.561 193.891 645.591 193.283 645.756C192.659 645.942 191.89 646.281 190.977 646.771C190.027 647.267 188.782 647.965 187.241 648.866L166.787 660.944L166.097 660.433L172.202 633.463C172.405 632.576 172.549 631.857 172.634 631.304C172.698 630.736 172.7 630.252 172.64 629.851C172.565 629.471 172.422 629.139 172.212 628.854C171.98 628.553 171.674 628.245 171.291 627.93L171.779 627.27ZM174.29 643.317L171.117 656.275L182.58 649.451L174.29 643.317Z" fill="black"/>
<path d="M124.839 611.45C124.465 612.11 124.166 612.697 123.941 613.21C123.697 613.742 123.509 614.238 123.377 614.697C123.207 615.156 123.102 615.607 123.062 616.048C123.003 616.471 122.972 616.941 122.968 617.456C122.939 618.727 123.169 619.926 123.657 621.053C124.109 622.18 124.782 623.198 125.677 624.107C126.81 625.258 128.064 626.088 129.441 626.596C130.8 627.085 132.226 627.253 133.719 627.1C135.175 626.945 136.661 626.469 138.177 625.671C139.694 624.873 141.167 623.771 142.596 622.364C144.452 620.538 145.829 618.689 146.728 616.818C147.627 614.946 148.01 613.163 147.876 611.468C147.619 608.98 146.541 606.771 144.642 604.84C143.345 603.523 141.898 602.554 140.301 601.933C138.703 601.313 136.754 600.966 134.453 600.892L134.462 599.787C136.692 599.492 138.9 599.749 141.085 600.558C143.252 601.349 145.23 602.654 147.02 604.473C148.573 606.05 149.729 607.745 150.488 609.555C151.247 611.366 151.619 613.192 151.604 615.033C151.571 616.893 151.151 618.731 150.345 620.548C149.52 622.346 148.3 624.04 146.685 625.629C144.848 627.437 142.885 628.747 140.798 629.559C138.692 630.39 136.535 630.685 134.327 630.447C132.598 630.249 130.926 629.757 129.312 628.97C127.679 628.202 126.26 627.206 125.054 625.981C123.502 624.403 122.227 622.588 121.231 620.536C120.905 619.834 120.587 619.325 120.276 619.009C119.966 618.694 119.608 618.516 119.203 618.476C118.78 618.417 118.356 618.506 117.93 618.742L117.273 618.074L124.127 610.726L124.839 611.45Z" fill="black"/>
<path d="M94.1605 587.56C94.8925 588.574 95.5477 589.369 96.126 589.947C96.689 590.504 97.2919 590.872 97.9347 591.05C98.5622 591.207 99.2735 591.191 100.069 591.002C100.827 590.808 101.779 590.457 102.924 589.952L103.564 590.838L97.2614 595.054L82.53 574.663L88.5127 570.003L89.1532 570.89C88.3135 571.818 87.6897 572.622 87.2816 573.302C86.8372 573.977 86.591 574.636 86.543 575.281C86.495 575.927 86.6546 576.614 87.0218 577.345C87.389 578.076 87.9462 578.958 88.6934 579.993L90.0888 581.924L108.612 568.542C109.267 568.069 109.764 567.646 110.104 567.272C110.444 566.898 110.646 566.511 110.711 566.111C110.76 565.69 110.677 565.219 110.463 564.7C110.212 564.174 109.84 563.527 109.349 562.758L110.014 562.277L117.608 572.79L116.943 573.27C116.367 572.562 115.877 572.016 115.472 571.634C115.046 571.267 114.623 571.059 114.202 571.01C113.745 570.955 113.261 571.063 112.751 571.335C112.225 571.586 111.582 571.987 110.823 572.536L92.7423 585.597L94.1605 587.56Z" fill="black"/>
<path d="M75.4485 501.398L75.6959 502.014L57.1449 521.544L73.7834 514.863C74.8467 514.436 75.6973 514.038 76.3351 513.67C76.9391 513.287 77.3762 512.873 77.6464 512.428C77.9166 511.983 78.0344 511.472 77.9998 510.897C77.9652 510.321 77.8119 509.625 77.5401 508.808L78.3013 508.503L82.2021 518.218L81.4409 518.523C81.0287 517.706 80.6483 517.073 80.2995 516.624C79.9169 516.16 79.4789 515.873 78.9855 515.763C78.4824 515.628 77.8852 515.643 77.1939 515.809C76.4784 515.984 75.589 516.285 74.5257 516.712L57.7422 523.451C56.993 523.752 56.4083 524.042 55.9879 524.323C55.5579 524.58 55.2682 524.907 55.1188 525.304C54.9597 525.676 54.9337 526.136 55.0408 526.682C55.1237 527.238 55.3109 527.949 55.6021 528.814L54.7684 529.149L51.4789 520.956L68.5668 503.024L43.9538 502.215L40.6643 494.023L41.4981 493.688C41.8569 494.442 42.1889 495.025 42.4941 495.435C42.7993 495.846 43.1382 496.131 43.5108 496.29C43.8834 496.449 44.3186 496.485 44.8166 496.397C45.3049 496.285 45.9115 496.083 46.6365 495.792L65.0512 488.398C65.7762 488.107 66.3489 487.821 66.7692 487.54C67.1896 487.259 67.4841 486.944 67.6529 486.596C67.812 486.223 67.8598 485.783 67.7963 485.276C67.723 484.744 67.5602 484.094 67.3077 483.325L68.0689 483.019L72.7266 494.619L71.9654 494.925C71.5871 494.123 71.2406 493.504 70.9257 493.069C70.601 492.61 70.2404 492.306 69.8436 492.157C69.4227 492.017 68.944 492.013 68.4074 492.144C67.8369 492.261 67.1167 492.494 66.2467 492.843L47.5057 500.368L75.4485 501.398Z" fill="black"/>
<path d="M55.4843 437.517L60.755 460.995L59.9546 461.175C59.7269 460.399 59.4954 459.783 59.26 459.329C59.0188 458.849 58.73 458.514 58.3935 458.323C58.0512 458.106 57.6273 458.001 57.1217 458.008C56.6161 458.014 55.9822 458.103 55.2199 458.274L35.858 462.621C35.0958 462.792 34.4846 462.983 34.0247 463.193C33.559 463.377 33.2178 463.641 33.001 463.983C32.7843 464.325 32.6694 464.765 32.6565 465.301C32.6378 465.813 32.6915 466.468 32.8175 467.267L31.9409 467.464L26.7557 444.367L32.9893 442.887L33.2203 443.916C32.275 444.342 31.5387 444.748 31.0113 445.133C30.4585 445.524 30.0711 445.998 29.8492 446.555C29.6216 447.086 29.5453 447.757 29.6205 448.568C29.69 449.353 29.8617 450.355 30.1355 451.575L31.4531 457.445C31.5843 458.029 31.7617 458.403 31.9852 458.566C32.203 458.704 32.6295 458.702 33.2647 458.559L42.9075 456.394L41.4102 449.725C41.2105 448.835 40.9971 448.122 40.77 447.586C40.5429 447.05 40.2525 446.648 39.8988 446.381C39.5141 446.093 39.0349 445.921 38.4614 445.863C37.8879 445.804 37.1393 445.799 36.2158 445.846L35.9848 444.817L46.0849 442.55L46.316 443.579C45.4355 443.937 44.7484 444.264 44.2547 444.562C43.7356 444.865 43.3734 445.214 43.1681 445.607C42.9373 446.005 42.8339 446.496 42.8577 447.078C42.8816 447.659 42.9962 448.408 43.2015 449.322L44.6989 455.992L55.447 453.579C55.879 453.482 56.1909 453.386 56.3827 453.289C56.5746 453.193 56.7071 453.07 56.7802 452.92C56.8616 452.688 56.8676 452.18 56.7981 451.394C56.6975 450.59 56.5274 449.654 56.2878 448.586L56.014 447.367C55.6661 445.817 55.2989 444.538 54.9126 443.531C54.5206 442.498 54.0259 441.661 53.4285 441.021C52.8254 440.356 52.0927 439.827 51.2303 439.433C50.368 439.039 49.2798 438.71 47.9657 438.444L47.6834 437.187L55.4843 437.517Z" fill="black"/>
<path d="M29.043 367.223C28.3129 367.428 27.687 367.634 27.1652 367.84C26.6174 368.046 26.1346 368.265 25.7169 368.497C25.2732 368.704 24.8815 368.949 24.5416 369.234C24.2019 369.493 23.8489 369.804 23.4827 370.167C22.5672 371.048 21.8855 372.061 21.4376 373.204C20.9637 374.322 20.7239 375.519 20.7181 376.795C20.7107 378.409 21.0165 379.882 21.6354 381.213C22.2545 382.518 23.1478 383.642 24.3154 384.585C25.4571 385.501 26.8471 386.211 28.4854 386.713C30.1238 387.215 31.9455 387.471 33.9507 387.48C36.5549 387.492 38.8351 387.151 40.7914 386.457C42.7477 385.763 44.2757 384.767 45.3754 383.47C46.9468 381.524 47.7386 379.197 47.751 376.488C47.7594 374.639 47.4156 372.932 46.7196 371.366C46.0236 369.801 44.8852 368.181 43.3043 366.507L44.0891 365.729C45.8797 367.092 47.2651 368.83 48.245 370.944C49.2251 373.032 49.7093 375.351 49.6977 377.904C49.6876 380.117 49.3138 382.134 48.5763 383.953C47.8389 385.773 46.8161 387.331 45.5081 388.627C44.1741 389.923 42.5809 390.931 40.7287 391.652C38.8765 392.347 36.8176 392.689 34.552 392.678C31.9739 392.667 29.6583 392.213 27.605 391.319C25.5258 390.424 23.7869 389.114 22.3885 387.389C21.301 386.029 20.4616 384.502 19.8703 382.807C19.2531 381.111 18.9483 379.404 18.9562 377.685C18.9663 375.472 19.3408 373.286 20.0798 371.128C20.3436 370.4 20.4764 369.814 20.4785 369.372C20.4805 368.929 20.352 368.551 20.093 368.237C19.8341 367.897 19.4706 367.661 19.0025 367.529L19.0067 366.592L29.0477 366.208L29.043 367.223Z" fill="black"/>
<path d="M22.8372 320.578C23.1896 318.499 23.9611 316.596 25.1517 314.869C26.3466 313.117 27.8253 311.717 29.5877 310.668C31.0799 309.812 32.749 309.236 34.595 308.942C36.441 308.647 38.3654 308.669 40.3681 309.009C42.6019 309.387 44.595 310.095 46.3475 311.131C48.0787 312.138 49.5031 313.396 50.6207 314.906C51.7426 316.39 52.5258 318.081 52.9702 319.979C53.419 321.851 53.465 323.84 53.1082 325.945C52.7471 328.077 52.0442 329.965 50.9994 331.61C49.9546 333.256 48.658 334.594 47.1097 335.626C45.5357 336.654 43.7528 337.355 41.761 337.731C39.7692 338.107 37.6436 338.103 35.3842 337.72C33.176 337.346 31.2086 336.643 29.4817 335.611C27.7549 334.579 26.3455 333.31 25.2536 331.804C24.136 330.294 23.3679 328.592 22.9491 326.699C22.5091 324.775 22.4718 322.735 22.8372 320.578ZM24.3125 321.225C24.108 322.431 24.1947 323.635 24.5725 324.834C24.9246 326.03 25.5189 327.121 26.3553 328.108C26.7949 328.631 27.3693 329.138 28.0787 329.628C28.7924 330.092 29.5897 330.531 30.4705 330.945C31.3256 331.354 32.2558 331.709 33.2611 332.012C34.2664 332.314 35.2825 332.552 36.3096 332.726C38.9542 333.175 41.3622 333.226 43.5337 332.881C45.7053 332.536 47.4089 331.834 48.6448 330.775C50.2153 329.457 51.1789 327.745 51.5357 325.639C51.7228 324.535 51.6936 323.461 51.4481 322.415C51.2069 321.344 50.7772 320.374 50.1587 319.503C48.2269 316.719 44.6035 314.877 39.2886 313.976C36.7467 313.546 34.4264 313.522 32.3275 313.906C30.233 314.264 28.54 314.981 27.2484 316.057C25.6392 317.448 24.6606 319.171 24.3125 321.225Z" fill="black"/>
<path d="M68.5685 263.937L38.9319 274.548L55.4311 280.263C56.5138 280.638 57.4167 280.895 58.1398 281.036C58.8469 281.143 59.4484 281.117 59.9444 280.958C60.4404 280.799 60.864 280.491 61.2152 280.034C61.5665 279.577 61.9073 278.951 62.2378 278.156L63.013 278.424L59.5865 288.316L58.8114 288.048C59.0359 287.161 59.1638 286.434 59.1952 285.866C59.2104 285.265 59.0681 284.761 58.7681 284.354C58.4767 283.922 58.0158 283.542 57.3855 283.213C56.7306 282.876 55.8618 282.52 54.7791 282.145L36.2498 275.727C35.6127 275.975 35.0954 276.195 34.6979 276.388C34.2757 276.573 33.9396 276.787 33.6897 277.031C33.4152 277.267 33.1979 277.536 33.0379 277.839C32.8533 278.133 32.6842 278.502 32.5308 278.945L31.6819 278.651L34.175 271.453L60.1994 262.319L45.9887 257.397C43.4295 256.511 41.714 256.371 40.8422 256.979C40.5345 257.23 40.2756 257.54 40.0654 257.908C39.8391 258.243 39.565 258.796 39.243 259.567L38.3941 259.272L41.8077 249.417L42.6567 249.711C42.4331 250.516 42.3147 251.136 42.3014 251.573C42.2965 251.984 42.3457 252.36 42.4488 252.698C42.7004 253.723 44.0934 254.674 46.628 255.552L68.8114 263.235L68.5685 263.937Z" fill="black"/>
<path d="M57.5438 217.565C56.9582 218.669 56.5338 219.608 56.2707 220.383C56.0198 221.134 55.9564 221.837 56.0805 222.493C56.2168 223.125 56.5454 223.756 57.0662 224.386C57.5762 224.98 58.3109 225.68 59.2703 226.483L58.7579 227.449L52.1908 223.658L63.9754 201.432L70.7986 204.741L70.2863 205.707C69.0829 205.364 68.086 205.16 67.2954 205.094C66.4939 204.993 65.7933 205.064 65.1934 205.306C64.5935 205.548 64.0469 205.995 63.5537 206.647C63.0605 207.299 62.515 208.189 61.9172 209.317L60.801 211.422L80.9901 222.127C81.7033 222.505 82.3029 222.764 82.7888 222.904C83.2748 223.043 83.7114 223.054 84.0986 222.935C84.4981 222.793 84.8835 222.511 85.2547 222.089C85.6151 221.631 86.0318 221.012 86.5048 220.231L87.2295 220.616L81.1543 232.073L80.4295 231.689C80.8105 230.86 81.0831 230.179 81.2472 229.647C81.3884 229.103 81.388 228.631 81.2461 228.231C81.0934 227.797 80.7822 227.411 80.3127 227.073C79.8553 226.713 79.2125 226.313 78.3842 225.874L58.6783 215.425L57.5438 217.565Z" fill="black"/>
<path d="M118.596 172.307L111.856 181.46L111.195 180.974C111.427 180.659 111.62 180.397 111.774 180.187C111.908 179.962 112.01 179.779 112.082 179.638C112.148 179.46 112.209 179.311 112.266 179.191C112.301 179.055 112.326 178.912 112.34 178.76C112.359 178.515 112.326 178.297 112.241 178.105C112.15 177.877 112.021 177.701 111.853 177.577C111.266 177.145 110.278 176.773 108.89 176.462L104.35 175.448L97.4473 184.821L100.403 189.569C100.572 189.822 100.759 190.073 100.964 190.322C101.164 190.533 101.379 190.724 101.61 190.894C102.092 191.249 102.598 191.331 103.128 191.139C103.657 190.946 104.247 190.41 104.895 189.529L105.556 190.016L100.298 197.156L99.6372 196.669C99.9405 196.214 100.145 195.782 100.251 195.375C100.357 194.968 100.326 194.46 100.159 193.852C99.9716 193.229 99.6316 192.461 99.1392 191.549C98.6412 190.6 97.9402 189.356 97.036 187.817L84.9112 167.391L85.4208 166.699L112.404 172.744C113.292 172.945 114.012 173.087 114.565 173.17C115.133 173.233 115.617 173.234 116.018 173.173C116.397 173.097 116.729 172.953 117.014 172.743C117.314 172.511 117.621 172.203 117.936 171.82L118.596 172.307ZM102.555 174.854L89.5899 171.71L96.4405 183.158L102.555 174.854Z" fill="black"/>
<path d="M134.311 125.331C133.65 124.959 133.062 124.661 132.548 124.437C132.015 124.194 131.519 124.007 131.06 123.876C130.6 123.708 130.15 123.604 129.708 123.564C129.285 123.507 128.815 123.476 128.3 123.473C127.029 123.448 125.831 123.68 124.705 124.171C123.579 124.625 122.562 125.3 121.655 126.197C120.507 127.333 119.68 128.589 119.175 129.967C118.688 131.327 118.524 132.754 118.681 134.246C118.838 135.702 119.318 137.187 120.119 138.701C120.921 140.216 122.027 141.686 123.436 143.112C125.267 144.964 127.119 146.337 128.992 147.232C130.865 148.127 132.65 148.505 134.344 148.368C136.832 148.106 139.039 147.023 140.965 145.119C142.28 143.819 143.245 142.369 143.862 140.771C144.479 139.172 144.822 137.222 144.89 134.921L145.995 134.927C146.295 137.157 146.043 139.365 145.239 141.552C144.453 143.721 143.153 145.702 141.338 147.496C139.764 149.052 138.072 150.212 136.263 150.975C134.454 151.738 132.629 152.114 130.787 152.104C128.928 152.075 127.089 151.659 125.27 150.857C123.47 150.036 121.774 148.82 120.181 147.209C118.369 145.376 117.054 143.416 116.237 141.331C115.402 139.227 115.102 137.071 115.335 134.862C115.529 133.132 116.018 131.459 116.8 129.843C117.565 128.209 118.558 126.787 119.78 125.579C121.354 124.023 123.166 122.744 125.216 121.743C125.918 121.416 126.426 121.096 126.741 120.785C127.056 120.474 127.233 120.116 127.272 119.711C127.329 119.288 127.24 118.864 127.003 118.439L127.67 117.78L135.033 124.617L134.311 125.331Z" fill="black"/>
<path d="M158.131 94.5984C157.119 95.3327 156.325 95.9896 155.748 96.5692C155.193 97.1335 154.826 97.7372 154.65 98.3804C154.494 99.0082 154.511 99.7195 154.702 100.514C154.899 101.273 155.251 102.224 155.759 103.367L154.874 104.01L150.644 97.7161L171.002 82.9387L175.675 88.9109L174.79 89.5534C173.86 88.7158 173.055 88.0938 172.374 87.6873C171.698 87.2444 171.038 86.9997 170.393 86.9531C169.747 86.9066 169.06 87.0677 168.33 87.4366C167.6 87.8054 166.719 88.3646 165.686 89.1142L163.758 90.5139L177.182 109.007C177.656 109.661 178.08 110.157 178.455 110.496C178.83 110.835 179.218 111.037 179.618 111.1C180.039 111.148 180.509 111.065 181.028 110.849C181.553 110.597 182.2 110.224 182.968 109.731L183.45 110.394L172.954 118.013L172.473 117.349C173.18 116.771 173.724 116.28 174.105 115.874C174.471 115.447 174.678 115.024 174.727 114.602C174.781 114.145 174.671 113.661 174.398 113.152C174.146 112.627 173.744 111.985 173.193 111.226L160.091 93.1757L158.131 94.5984Z" fill="black"/>
<path d="M244.251 75.6916L243.635 75.9404L224.064 57.4335L230.782 74.0569C231.211 75.1192 231.611 75.9689 231.981 76.6059C232.365 77.209 232.78 77.6452 233.226 77.9144C233.672 78.1836 234.182 78.3003 234.758 78.2644C235.333 78.2285 236.029 78.0736 236.845 77.7999L237.152 78.5605L227.446 82.4832L227.139 81.7227C227.955 81.3087 228.587 80.9268 229.035 80.577C229.498 80.1933 229.785 79.7547 229.894 79.261C230.028 78.7576 230.011 78.1605 229.844 77.4695C229.667 76.7545 229.364 75.8657 228.935 74.8034L222.158 58.0352C221.856 57.2867 221.563 56.7026 221.281 56.2829C221.023 55.8534 220.696 55.5644 220.299 55.416C219.926 55.2577 219.467 55.2327 218.92 55.3411C218.365 55.4253 217.654 55.614 216.79 55.9073L216.453 55.0743L224.638 51.7663L242.609 68.8136L243.362 44.1989L251.547 40.8909L251.884 41.7239C251.131 42.0844 250.549 42.4178 250.139 42.7239C249.729 43.03 249.445 43.3695 249.287 43.7425C249.129 44.1154 249.094 44.5507 249.183 45.0485C249.296 45.5365 249.498 46.1427 249.791 46.867L257.227 65.265C257.52 65.9893 257.807 66.5614 258.089 66.9811C258.371 67.4008 258.686 67.6946 259.035 67.8626C259.408 68.0209 259.848 68.0677 260.356 68.003C260.887 67.9285 261.537 67.7642 262.305 67.51L262.613 68.2706L251.023 72.9544L250.716 72.1939C251.517 71.8138 252.135 71.4659 252.569 71.15C253.027 70.8243 253.331 70.463 253.479 70.0659C253.618 69.6447 253.621 69.1659 253.489 68.6296C253.371 68.0594 253.136 67.3397 252.785 66.4705L245.217 47.7466L244.251 75.6916Z" fill="black"/>
<path d="M308.086 55.5832L284.62 60.9069L284.439 60.1069C285.214 59.8775 285.829 59.6446 286.283 59.4081C286.762 59.1659 287.097 58.8763 287.287 58.5393C287.503 58.1966 287.608 57.7724 287.6 57.2669C287.592 56.7613 287.501 56.1276 287.329 55.3657L282.938 36.0137C282.765 35.2518 282.573 34.6411 282.362 34.1816C282.177 33.7164 281.912 33.3758 281.57 33.1598C281.227 32.9438 280.787 32.8299 280.251 32.8182C279.739 32.8007 279.084 32.8558 278.285 32.9836L278.087 32.1075L301.172 26.8702L302.665 33.1004L301.637 33.3337C301.209 32.3894 300.802 31.6539 300.415 31.1274C300.023 30.5755 299.548 30.1893 298.991 29.9686C298.459 29.7421 297.788 29.6674 296.977 29.7444C296.192 29.8157 295.19 29.9896 293.971 30.2662L288.105 31.5971C287.521 31.7296 287.147 31.9078 286.984 32.1317C286.847 32.3498 286.85 32.7763 286.994 33.4112L289.181 43.0491L295.847 41.5367C296.736 41.335 297.448 41.12 297.984 40.8917C298.52 40.6633 298.921 40.372 299.188 40.0178C299.474 39.6324 299.646 39.1528 299.702 38.5792C299.759 38.0055 299.763 37.257 299.714 36.3335L300.742 36.1002L303.033 46.1952L302.004 46.4286C301.644 45.5489 301.315 44.8625 301.016 44.3695C300.712 43.8512 300.363 43.4897 299.969 43.2853C299.57 43.0554 299.079 42.9531 298.497 42.9782C297.916 43.0034 297.168 43.1197 296.253 43.3271L289.587 44.8395L292.024 55.5822C292.122 56.0139 292.219 56.3256 292.316 56.5173C292.413 56.7089 292.537 56.8411 292.687 56.9139C292.919 56.9948 293.427 56.9996 294.212 56.9283C295.017 56.8259 295.952 56.6537 297.019 56.4117L298.238 56.1352C299.787 55.7837 301.065 55.4137 302.072 55.0251C303.104 54.6307 303.939 54.1341 304.578 53.5353C305.242 52.9307 305.769 52.1968 306.161 51.3335C306.553 50.4703 306.88 49.3814 307.142 48.0667L308.399 47.7815L308.086 55.5832Z" fill="black"/>
<path d="M378.32 28.9831C378.114 28.2534 377.907 27.6279 377.7 27.1066C377.493 26.5593 377.272 26.077 377.039 25.6598C376.832 25.2166 376.585 24.8254 376.299 24.4862C376.04 24.1471 375.728 23.7948 375.364 23.4294C374.481 22.5159 373.467 21.8365 372.322 21.3911C371.203 20.9198 370.006 20.6827 368.73 20.6797C367.115 20.676 365.643 20.9851 364.314 21.6071C363.01 22.2291 361.888 23.125 360.948 24.2947C360.034 25.4384 359.328 26.83 358.829 28.4695C358.331 30.109 358.079 31.9313 358.075 33.9365C358.069 36.5407 358.415 38.8201 359.114 40.7749C359.812 42.7296 360.811 44.2553 362.111 45.3521C364.06 46.9191 366.389 47.7057 369.098 47.7119C370.947 47.7162 372.653 47.3685 374.217 46.669C375.781 45.9695 377.399 44.8273 379.069 43.2426L379.848 44.0257C378.49 45.8194 376.755 47.2087 374.643 48.1934C372.558 49.1782 370.239 49.6677 367.687 49.6618C365.473 49.6567 363.456 49.2875 361.635 48.5541C359.813 47.8208 358.253 46.8015 356.954 45.4965C355.655 44.1654 354.643 42.5745 353.918 40.7239C353.219 38.8733 352.873 36.8152 352.878 34.5496C352.884 31.9715 353.332 29.6548 354.222 27.5995C355.112 25.5182 356.418 23.7764 358.14 22.3741C359.497 21.2835 361.022 20.4407 362.716 19.8456C364.41 19.2245 366.117 18.9159 367.836 18.9199C370.049 18.925 372.236 19.2946 374.396 20.0287C375.124 20.2908 375.71 20.4224 376.153 20.4234C376.595 20.4244 376.973 20.2951 377.286 20.0354C377.625 19.7757 377.861 19.4117 377.992 18.9432L378.929 18.9454L379.336 28.9854L378.32 28.9831Z" fill="black"/>
<path d="M424.951 22.6721C427.032 23.0198 428.936 23.787 430.666 24.9736C432.42 26.1646 433.824 27.6401 434.876 29.4002C435.736 30.8904 436.316 32.5582 436.614 34.4035C436.913 36.2489 436.895 38.1733 436.56 40.1767C436.187 42.4114 435.484 44.4061 434.451 46.161C433.449 47.8944 432.194 49.3216 430.686 50.4426C429.205 51.568 427.515 52.3549 425.618 52.8036C423.747 53.2566 421.759 53.3071 419.653 52.9551C417.521 52.5988 415.631 51.9001 413.983 50.8591C412.335 49.818 410.994 48.5245 409.958 46.9785C408.927 45.4068 408.222 43.6255 407.841 41.6346C407.461 39.6436 407.46 37.518 407.838 35.2577C408.207 33.0487 408.906 31.0797 409.934 29.3505C410.962 27.6214 412.228 26.2091 413.731 25.1138C415.239 23.9928 416.939 23.2208 418.831 22.7978C420.754 22.3534 422.794 22.3115 424.951 22.6721ZM424.308 24.1488C423.101 23.9471 421.898 24.0364 420.699 24.4169C419.505 24.7717 418.415 25.3685 417.43 26.2072C416.907 26.6479 416.402 27.2235 415.913 27.934C415.451 28.6487 415.014 29.447 414.602 30.3287C414.195 31.1848 413.841 32.1158 413.541 33.1218C413.241 34.1277 413.005 35.1444 412.834 36.1718C412.391 38.8174 412.345 41.2256 412.695 43.3963C413.046 45.5671 413.751 47.2692 414.812 48.5026C416.135 50.0701 417.849 51.0299 419.955 51.3819C421.06 51.5665 422.134 51.5348 423.179 51.287C424.249 51.0434 425.219 50.6115 426.089 49.9911C428.868 48.0529 430.702 44.4254 431.59 39.1085C432.015 36.5657 432.034 34.2452 431.645 32.1473C431.282 30.0536 430.561 28.3622 429.483 27.0731C428.088 25.467 426.363 24.4922 424.308 24.1488Z" fill="black"/>
<path d="M481.696 68.2752L471.018 38.6626L465.34 55.1747C464.968 56.2583 464.712 57.1617 464.574 57.8852C464.468 58.5924 464.495 59.1939 464.655 59.6895C464.816 60.1851 465.124 60.6081 465.582 60.9583C466.04 61.3085 466.667 61.6479 467.463 61.9766L467.196 62.7524L457.296 59.3483L457.563 58.5725C458.45 58.795 459.178 58.9213 459.746 58.9514C460.347 58.9653 460.851 58.8218 461.257 58.5209C461.688 58.2285 462.067 57.7668 462.394 57.1357C462.73 56.4801 463.084 55.6105 463.457 54.5269L469.833 35.9831C469.584 35.3467 469.362 34.8299 469.168 34.4327C468.983 34.011 468.768 33.6754 468.523 33.426C468.287 33.152 468.017 32.9354 467.714 32.776C467.419 32.5921 467.05 32.4239 466.607 32.2715L466.899 31.4218L474.102 33.8987L483.294 59.9024L488.185 45.6806C489.065 43.1195 489.201 41.4037 488.591 40.5332C488.339 40.2261 488.029 39.9679 487.66 39.7585C487.324 39.533 486.771 39.2601 486 38.9399L486.292 38.0903L496.155 41.4816L495.863 42.3313C495.058 42.1095 494.437 41.9925 494.001 41.9802C493.589 41.9763 493.214 42.0263 492.875 42.1301C491.852 42.384 490.904 43.7792 490.032 46.3157L482.398 68.5165L481.696 68.2752Z" fill="black"/>
<path d="M528.043 57.1458C526.937 56.5627 525.997 56.1405 525.222 55.8791C524.47 55.6299 523.767 55.5681 523.112 55.6937C522.48 55.8314 521.849 56.1614 521.221 56.6837C520.627 57.195 519.93 57.9313 519.128 58.8925L518.161 58.3823L521.938 51.8067L544.189 63.541L540.896 70.3717L539.929 69.8615C540.27 68.6574 540.472 67.6599 540.535 66.8692C540.634 66.0676 540.562 65.3671 540.319 64.7677C540.075 64.1683 539.627 63.6228 538.974 63.1311C538.32 62.6393 537.429 62.0958 536.301 61.5006L534.193 60.3891L523.534 80.6024C523.157 81.3164 522.9 81.9166 522.761 82.4029C522.622 82.8891 522.613 83.3257 522.733 83.7128C522.875 84.1119 523.158 84.4966 523.581 84.8669C524.039 85.2263 524.659 85.6416 525.441 86.1128L525.059 86.8384L513.587 80.789L513.97 80.0634C514.801 80.4425 515.482 80.7135 516.014 80.8765C516.559 81.0164 517.031 81.015 517.43 80.8722C517.864 80.7185 518.249 80.4065 518.586 79.9361C518.945 79.478 519.343 78.8342 519.781 78.005L530.185 58.2755L528.043 57.1458Z" fill="black"/>
<path d="M573.439 118.096L564.27 111.376L564.755 110.714C565.07 110.945 565.333 111.138 565.543 111.292C565.768 111.425 565.952 111.527 566.093 111.598C566.271 111.664 566.42 111.725 566.54 111.781C566.676 111.816 566.82 111.84 566.971 111.854C567.216 111.872 567.434 111.839 567.626 111.753C567.854 111.662 568.03 111.533 568.153 111.365C568.584 110.776 568.953 109.788 569.261 108.399L570.266 103.856L560.877 96.9752L556.136 99.9417C555.882 100.111 555.632 100.299 555.384 100.505C555.173 100.705 554.982 100.921 554.813 101.152C554.459 101.635 554.379 102.141 554.572 102.67C554.765 103.199 555.303 103.787 556.185 104.434L555.7 105.095L548.548 99.8534L549.033 99.1918C549.49 99.4941 549.922 99.6977 550.329 99.8026C550.737 99.9074 551.244 99.8758 551.852 99.7076C552.475 99.5185 553.242 99.1767 554.153 98.6822C555.101 98.1821 556.343 97.4783 557.88 96.5707L578.278 84.3997L578.971 84.9077L572.987 111.905C572.789 112.793 572.648 113.513 572.566 114.066C572.504 114.634 572.505 115.119 572.566 115.519C572.643 115.899 572.788 116.23 572.999 116.515C573.232 116.814 573.54 117.121 573.923 117.434L573.439 118.096ZM570.855 102.061L573.97 89.0881L562.538 95.9646L570.855 102.061Z" fill="black"/>
<path d="M620.45 133.704C620.82 133.043 621.117 132.455 621.34 131.94C621.581 131.407 621.767 130.91 621.897 130.45C622.065 129.99 622.168 129.54 622.206 129.098C622.263 128.674 622.292 128.205 622.294 127.689C622.317 126.419 622.081 125.221 621.588 124.096C621.132 122.971 620.454 121.956 619.555 121.051C618.417 119.905 617.158 119.081 615.779 118.579C614.418 118.096 612.991 117.934 611.499 118.095C610.044 118.255 608.56 118.738 607.047 119.543C605.534 120.348 604.067 121.457 602.644 122.87C600.796 124.705 599.427 126.56 598.537 128.436C597.646 130.311 597.272 132.096 597.413 133.79C597.681 136.277 598.769 138.481 600.677 140.403C601.98 141.715 603.431 142.678 605.031 143.291C606.631 143.904 608.582 144.242 610.884 144.306L610.88 145.41C608.651 145.716 606.442 145.469 604.253 144.669C602.083 143.888 600.099 142.592 598.3 140.782C596.741 139.211 595.577 137.522 594.81 135.715C594.043 133.907 593.663 132.083 593.669 130.242C593.694 128.382 594.105 126.542 594.903 124.722C595.72 122.92 596.932 121.221 598.54 119.624C600.369 117.808 602.325 116.489 604.409 115.667C606.511 114.827 608.667 114.522 610.876 114.75C612.606 114.941 614.28 115.425 615.898 116.204C617.534 116.965 618.958 117.955 620.169 119.175C621.729 120.745 623.011 122.554 624.017 124.602C624.346 125.303 624.666 125.81 624.978 126.124C625.29 126.438 625.649 126.615 626.054 126.653C626.477 126.709 626.901 126.619 627.325 126.381L627.986 127.046L621.165 134.425L620.45 133.704Z" fill="black"/>
<path d="M651.236 157.455C650.499 156.445 649.841 155.652 649.26 155.077C648.694 154.522 648.09 154.157 647.446 153.982C646.818 153.828 646.107 153.847 645.312 154.039C644.554 154.238 643.604 154.592 642.462 155.103L641.818 154.219L648.101 149.975L662.925 170.3L656.963 174.986L656.319 174.102C657.154 173.171 657.774 172.364 658.179 171.682C658.621 171.005 658.864 170.344 658.909 169.699C658.954 169.054 658.791 168.367 658.421 167.638C658.05 166.909 657.489 166.029 656.737 164.998L655.333 163.073L636.87 176.538C636.218 177.014 635.723 177.439 635.384 177.815C635.046 178.191 634.845 178.579 634.783 178.979C634.736 179.4 634.82 179.87 635.037 180.389C635.291 180.913 635.665 181.559 636.16 182.326L635.497 182.809L627.855 172.331L628.518 171.848C629.097 172.554 629.59 173.097 629.997 173.477C630.424 173.842 630.848 174.048 631.27 174.096C631.727 174.149 632.211 174.038 632.72 173.764C633.244 173.51 633.885 173.107 634.642 172.555L652.663 159.412L651.236 157.455Z" fill="black"/>
<path d="M670.337 243.532L670.087 242.917L688.55 223.304L671.942 230.06C670.88 230.491 670.032 230.893 669.395 231.264C668.793 231.65 668.358 232.066 668.09 232.512C667.822 232.959 667.706 233.47 667.743 234.045C667.78 234.62 667.937 235.315 668.212 236.131L667.453 236.44L663.508 226.743L664.268 226.434C664.684 227.249 665.067 227.88 665.418 228.328C665.802 228.79 666.242 229.075 666.736 229.183C667.239 229.316 667.836 229.298 668.527 229.129C669.242 228.951 670.13 228.646 671.191 228.214L687.944 221.399C688.692 221.095 689.275 220.802 689.694 220.519C690.123 220.26 690.411 219.932 690.559 219.534C690.716 219.161 690.74 218.702 690.631 218.156C690.545 217.6 690.355 216.89 690.06 216.027L690.892 215.688L694.218 223.865L677.212 241.874L701.828 242.572L705.155 250.75L704.322 251.088C703.96 250.336 703.625 249.755 703.318 249.346C703.011 248.937 702.671 248.653 702.298 248.496C701.925 248.338 701.489 248.305 700.992 248.395C700.504 248.509 699.898 248.713 699.174 249.007L680.793 256.485C680.07 256.779 679.498 257.068 679.079 257.35C678.66 257.633 678.367 257.949 678.2 258.299C678.042 258.672 677.997 259.112 678.062 259.62C678.138 260.151 678.304 260.801 678.56 261.568L677.8 261.877L673.09 250.298L673.85 249.989C674.232 250.79 674.581 251.407 674.898 251.84C675.225 252.298 675.587 252.6 675.984 252.748C676.406 252.886 676.884 252.888 677.42 252.754C677.99 252.635 678.709 252.398 679.578 252.045L698.285 244.435L670.337 243.532Z" fill="black"/>
<path d="M690.59 307.322L685.213 283.868L686.013 283.684C686.244 284.46 686.478 285.074 686.716 285.527C686.959 286.006 687.249 286.34 687.587 286.53C687.93 286.745 688.354 286.848 688.86 286.839C689.365 286.83 689.999 286.738 690.76 286.563L710.103 282.129C710.864 281.955 711.474 281.761 711.933 281.549C712.398 281.363 712.738 281.098 712.953 280.754C713.169 280.411 713.281 279.971 713.292 279.435C713.308 278.923 713.252 278.268 713.122 277.47L713.998 277.269L719.287 300.342L713.06 301.85L712.825 300.822C713.768 300.392 714.503 299.983 715.028 299.595C715.579 299.202 715.964 298.726 716.184 298.168C716.409 297.636 716.482 296.964 716.403 296.154C716.33 295.369 716.154 294.368 715.875 293.149L714.531 287.286C714.397 286.702 714.218 286.329 713.994 286.167C713.775 286.03 713.349 286.034 712.714 286.179L703.081 288.388L704.609 295.051C704.812 295.939 705.029 296.651 705.259 297.186C705.488 297.721 705.78 298.122 706.135 298.388C706.521 298.673 707.001 298.844 707.575 298.899C708.149 298.955 708.897 298.957 709.821 298.906L710.056 299.934L699.966 302.247L699.731 301.219C700.61 300.857 701.295 300.526 701.788 300.226C702.305 299.92 702.666 299.571 702.869 299.177C703.098 298.777 703.2 298.286 703.173 297.704C703.147 297.123 703.029 296.375 702.819 295.461L701.292 288.798L690.555 291.259C690.123 291.358 689.812 291.456 689.62 291.554C689.429 291.651 689.297 291.775 689.224 291.925C689.144 292.157 689.14 292.666 689.213 293.45C689.318 294.255 689.492 295.19 689.736 296.256L690.016 297.474C690.371 299.023 690.744 300.3 691.134 301.306C691.531 302.337 692.03 303.171 692.63 303.808C693.236 304.471 693.971 304.997 694.835 305.387C695.699 305.776 696.789 306.101 698.104 306.361L698.392 307.617L690.59 307.322Z" fill="black"/>
<path d="M717.349 377.496C718.078 377.287 718.703 377.079 719.224 376.871C719.77 376.662 720.252 376.441 720.669 376.207C721.112 375.998 721.502 375.751 721.841 375.464C722.179 375.204 722.531 374.892 722.896 374.527C723.807 373.642 724.484 372.626 724.927 371.48C725.396 370.36 725.63 369.163 725.63 367.886C725.63 366.272 725.318 364.801 724.693 363.472C724.068 362.17 723.17 361.05 721.998 360.113C720.852 359.201 719.459 358.498 717.818 358.003C716.177 357.508 714.355 357.261 712.349 357.261C709.745 357.261 707.467 357.612 705.513 358.315C703.56 359.018 702.037 360.021 700.943 361.323C699.38 363.276 698.599 365.607 698.599 368.315C698.599 370.164 698.95 371.87 699.653 373.432C700.356 374.995 701.502 376.609 703.091 378.276L702.309 379.057C700.513 377.703 699.119 375.971 698.13 373.862C697.14 371.779 696.646 369.461 696.646 366.909C696.646 364.695 697.011 362.677 697.74 360.854C698.469 359.031 699.485 357.469 700.787 356.167C702.115 354.865 703.704 353.849 705.553 353.12C707.402 352.417 709.459 352.066 711.725 352.066C714.303 352.066 716.62 352.509 718.678 353.394C720.761 354.28 722.506 355.582 723.912 357.3C725.006 358.655 725.852 360.178 726.451 361.871C727.076 363.564 727.388 365.269 727.388 366.988C727.388 369.202 727.023 371.389 726.294 373.551C726.034 374.28 725.903 374.866 725.903 375.308C725.903 375.751 726.033 376.129 726.294 376.441C726.554 376.78 726.919 377.014 727.388 377.144L727.388 378.082L717.348 378.511L717.349 377.496Z" fill="black"/>
<path d="M723.765 424.112C723.422 426.193 722.659 428.1 721.476 429.831C720.289 431.589 718.817 432.996 717.059 434.052C715.571 434.915 713.904 435.498 712.06 435.801C710.215 436.104 708.291 436.091 706.287 435.761C704.051 435.392 702.055 434.694 700.298 433.665C698.562 432.666 697.132 431.415 696.007 429.91C694.879 428.43 694.088 426.743 693.635 424.847C693.178 422.977 693.123 420.988 693.47 418.881C693.821 416.749 694.516 414.857 695.553 413.207C696.591 411.557 697.881 410.213 699.425 409.174C700.994 408.139 702.774 407.429 704.764 407.045C706.754 406.66 708.88 406.654 711.141 407.027C713.35 407.391 715.321 408.085 717.053 409.11C718.784 410.134 720.199 411.396 721.298 412.897C722.422 414.402 723.198 416.1 723.625 417.992C724.074 419.913 724.121 421.953 723.765 424.112ZM722.287 423.472C722.486 422.265 722.394 421.062 722.01 419.864C721.653 418.67 721.054 417.581 720.213 416.598C719.771 416.077 719.194 415.573 718.483 415.086C717.767 414.625 716.968 414.189 716.085 413.78C715.228 413.375 714.296 413.023 713.289 412.726C712.283 412.428 711.266 412.194 710.238 412.025C707.591 411.588 705.183 411.548 703.013 411.903C700.843 412.258 699.143 412.967 697.912 414.031C696.347 415.357 695.391 417.073 695.044 419.18C694.862 420.285 694.896 421.36 695.146 422.404C695.392 423.474 695.826 424.443 696.449 425.311C698.393 428.086 702.025 429.912 707.344 430.788C709.887 431.207 712.208 431.22 714.305 430.827C716.398 430.459 718.088 429.735 719.374 428.653C720.977 427.255 721.948 425.528 722.287 423.472Z" fill="black"/>
<path d="M678.29 480.959L707.879 470.215L691.354 464.574C690.27 464.204 689.365 463.951 688.642 463.814C687.934 463.71 687.333 463.738 686.838 463.9C686.342 464.061 685.92 464.371 685.571 464.829C685.222 465.288 684.884 465.916 684.557 466.712L683.78 466.447L687.162 456.54L687.939 456.804C687.718 457.692 687.593 458.42 687.565 458.988C687.552 459.589 687.697 460.093 687.998 460.498C688.292 460.929 688.754 461.307 689.386 461.633C690.043 461.967 690.913 462.319 691.997 462.689L710.556 469.023C711.191 468.773 711.708 468.55 712.104 468.355C712.526 468.169 712.861 467.953 713.11 467.708C713.383 467.471 713.599 467.2 713.758 466.897C713.941 466.602 714.109 466.232 714.26 465.789L715.11 466.079L712.65 473.288L686.667 482.539L700.9 487.397C703.463 488.272 705.179 488.404 706.048 487.792C706.354 487.539 706.612 487.228 706.82 486.859C707.045 486.523 707.317 485.969 707.635 485.197L708.486 485.487L705.117 495.358L704.266 495.068C704.486 494.262 704.602 493.641 704.613 493.205C704.616 492.793 704.565 492.418 704.461 492.08C704.204 491.057 702.807 490.112 700.269 489.245L678.051 481.662L678.29 480.959Z" fill="black"/>
<path d="M689.524 527.281C690.105 526.174 690.525 525.233 690.785 524.458C691.032 523.705 691.093 523.002 690.965 522.347C690.826 521.715 690.495 521.086 689.971 520.458C689.458 519.866 688.721 519.17 687.758 518.371L688.266 517.402L694.85 521.164L683.166 543.442L676.328 540.165L676.836 539.196C678.041 539.534 679.038 539.734 679.829 539.796C680.631 539.893 681.332 539.819 681.93 539.574C682.529 539.33 683.074 538.88 683.564 538.226C684.054 537.571 684.596 536.679 685.188 535.549L686.295 533.439L666.058 522.825C665.343 522.45 664.742 522.194 664.256 522.056C663.769 521.919 663.332 521.91 662.946 522.031C662.547 522.175 662.163 522.459 661.793 522.882C661.435 523.341 661.021 523.962 660.552 524.745L659.825 524.364L665.849 512.879L666.575 513.26C666.198 514.092 665.928 514.774 665.767 515.306C665.628 515.851 665.631 516.323 665.774 516.722C665.929 517.156 666.242 517.54 666.713 517.876C667.172 518.234 667.816 518.631 668.647 519.066L688.4 529.426L689.524 527.281Z" fill="black"/>
<path d="M628.677 572.814L635.376 563.631L636.039 564.114C635.808 564.43 635.617 564.693 635.463 564.903C635.331 565.129 635.229 565.313 635.158 565.454C635.093 565.632 635.032 565.781 634.976 565.902C634.942 566.038 634.918 566.181 634.904 566.333C634.886 566.578 634.921 566.796 635.006 566.988C635.098 567.216 635.228 567.391 635.396 567.514C635.985 567.943 636.975 568.311 638.364 568.615L642.909 569.609L649.769 560.205L646.792 555.471C646.622 555.218 646.434 554.968 646.227 554.72C646.026 554.509 645.81 554.32 645.579 554.151C645.095 553.798 644.589 553.718 644.06 553.913C643.531 554.108 642.945 554.647 642.3 555.53L641.637 555.047L646.863 547.883L647.526 548.367C647.225 548.824 647.022 549.256 646.918 549.664C646.814 550.071 646.847 550.579 647.016 551.186C647.207 551.809 647.55 552.575 648.047 553.485C648.549 554.432 649.256 555.672 650.167 557.207L662.384 577.578L661.877 578.272L634.867 572.349C633.979 572.153 633.258 572.014 632.705 571.933C632.136 571.873 631.652 571.874 631.252 571.936C630.872 572.014 630.541 572.159 630.257 572.371C629.958 572.605 629.652 572.913 629.34 573.298L628.677 572.814ZM644.706 570.195L657.686 573.281L650.783 561.863L644.706 570.195Z" fill="black"/>
<path d="M613.175 619.861C613.837 620.23 614.426 620.525 614.941 620.747C615.475 620.987 615.972 621.172 616.432 621.301C616.893 621.467 617.344 621.569 617.785 621.607C618.209 621.662 618.678 621.691 619.194 621.691C620.465 621.711 621.662 621.473 622.786 620.977C623.91 620.518 624.923 619.838 625.826 618.937C626.97 617.797 627.791 616.536 628.289 615.156C628.77 613.794 628.928 612.367 628.764 610.875C628.6 609.42 628.114 607.937 627.306 606.426C626.497 604.915 625.385 603.45 623.969 602.031C622.13 600.187 620.271 598.822 618.394 597.936C616.517 597.05 614.731 596.679 613.037 596.825C610.551 597.098 608.349 598.191 606.431 600.103C605.122 601.409 604.163 602.863 603.554 604.464C602.944 606.065 602.61 608.017 602.552 610.319L601.447 610.317C601.137 608.089 601.379 605.879 602.173 603.689C602.949 601.517 604.241 599.53 606.048 597.728C607.615 596.164 609.301 594.997 611.107 594.226C612.912 593.455 614.736 593.07 616.577 593.072C618.437 593.093 620.278 593.5 622.1 594.294C623.903 595.107 625.605 596.315 627.205 597.919C629.026 599.744 630.35 601.698 631.176 603.779C632.02 605.88 632.331 608.035 632.107 610.244C631.921 611.975 631.44 613.65 630.665 615.269C629.908 616.907 628.921 618.333 627.704 619.547C626.137 621.11 624.331 622.397 622.286 623.408C621.585 623.738 621.079 624.06 620.765 624.372C620.452 624.685 620.276 625.044 620.239 625.449C620.183 625.872 620.275 626.296 620.514 626.72L619.85 627.382L612.456 620.578L613.175 619.861Z" fill="black"/>
<path d="M589.494 650.701C590.502 649.962 591.293 649.301 591.867 648.719C592.42 648.152 592.784 647.547 592.958 646.903C593.111 646.275 593.09 645.563 592.896 644.77C592.696 644.012 592.339 643.063 591.826 641.922L592.708 641.275L596.966 647.549L576.675 662.419L571.975 656.468L572.857 655.821C573.791 656.654 574.599 657.273 575.282 657.676C575.96 658.116 576.621 658.358 577.267 658.401C577.912 658.445 578.599 658.281 579.327 657.909C580.055 657.537 580.934 656.973 581.963 656.219L583.885 654.811L570.378 636.378C569.901 635.727 569.474 635.233 569.097 634.895C568.721 634.558 568.333 634.358 567.932 634.296C567.511 634.25 567.041 634.336 566.523 634.554C565.999 634.809 565.354 635.184 564.588 635.681L564.104 635.019L574.564 627.354L575.049 628.016C574.345 628.596 573.803 629.09 573.423 629.498C573.059 629.926 572.854 630.351 572.808 630.772C572.756 631.23 572.867 631.713 573.143 632.221C573.398 632.745 573.802 633.385 574.356 634.141L587.54 652.132L589.494 650.701Z" fill="black"/>
<path d="M503.46 669.996L504.074 669.745L523.729 688.163L516.936 671.57C516.502 670.51 516.098 669.662 515.726 669.027C515.339 668.425 514.922 667.991 514.475 667.724C514.028 667.457 513.517 667.342 512.941 667.381C512.366 667.419 511.671 667.577 510.856 667.855L510.545 667.096L520.233 663.129L520.544 663.888C519.73 664.306 519.1 664.691 518.653 665.042C518.192 665.428 517.908 665.868 517.801 666.362C517.669 666.866 517.689 667.463 517.859 668.153C518.038 668.868 518.345 669.755 518.78 670.815L525.632 687.553C525.938 688.3 526.233 688.883 526.517 689.301C526.777 689.729 527.105 690.017 527.503 690.164C527.877 690.32 528.336 690.343 528.882 690.232C529.437 690.146 530.147 689.954 531.01 689.657L531.35 690.488L523.18 693.833L505.133 676.867L504.491 701.485L496.321 704.83L495.981 703.998C496.732 703.634 497.312 703.298 497.721 702.99C498.129 702.682 498.412 702.342 498.568 701.968C498.725 701.594 498.758 701.159 498.667 700.662C498.551 700.174 498.346 699.569 498.05 698.846L490.531 680.482C490.235 679.759 489.945 679.188 489.661 678.769C489.377 678.351 489.061 678.059 488.711 677.892C488.338 677.736 487.897 677.691 487.39 677.758C486.859 677.835 486.209 678.002 485.443 678.26L485.132 677.5L496.7 672.764L497.011 673.523C496.211 673.907 495.595 674.258 495.162 674.576C494.705 674.903 494.404 675.266 494.257 675.664C494.12 676.086 494.119 676.564 494.254 677.1C494.375 677.67 494.613 678.388 494.968 679.256L502.62 697.946L503.46 669.996Z" fill="black"/>
<path d="M439.716 690.393L463.158 684.963L463.343 685.763C462.568 685.995 461.955 686.231 461.502 686.47C461.024 686.714 460.69 687.005 460.501 687.343C460.287 687.687 460.185 688.111 460.195 688.617C460.205 689.122 460.298 689.756 460.475 690.517L464.952 709.849C465.129 710.61 465.323 711.22 465.537 711.678C465.724 712.143 465.99 712.482 466.334 712.696C466.677 712.911 467.118 713.023 467.654 713.032C468.166 713.047 468.821 712.989 469.619 712.858L469.822 713.733L446.76 719.074L445.239 712.851L446.266 712.613C446.698 713.556 447.109 714.289 447.498 714.814C447.892 715.364 448.369 715.748 448.927 715.966C449.46 716.19 450.132 716.262 450.942 716.181C451.727 716.106 452.728 715.928 453.945 715.646L459.806 714.289C460.389 714.153 460.762 713.974 460.924 713.749C461.06 713.53 461.055 713.104 460.908 712.469L458.678 702.842L452.019 704.384C451.131 704.59 450.419 704.808 449.885 705.039C449.35 705.269 448.95 705.563 448.685 705.918C448.4 706.305 448.231 706.785 448.177 707.359C448.123 707.933 448.122 708.681 448.176 709.605L447.148 709.843L444.812 699.758L445.84 699.52C446.204 700.398 446.536 701.083 446.837 701.575C447.144 702.092 447.494 702.451 447.889 702.654C448.289 702.882 448.78 702.982 449.362 702.955C449.943 702.927 450.691 702.807 451.604 702.595L458.264 701.053L455.778 690.321C455.678 689.89 455.58 689.579 455.482 689.388C455.384 689.197 455.26 689.065 455.11 688.993C454.877 688.913 454.369 688.91 453.584 688.985C452.78 689.091 451.845 689.268 450.78 689.514L449.562 689.797C448.014 690.155 446.738 690.531 445.733 690.924C444.703 691.323 443.87 691.823 443.234 692.425C442.573 693.033 442.048 693.769 441.661 694.634C441.273 695.499 440.951 696.589 440.694 697.905L439.438 698.196L439.716 690.393Z" fill="black"/>
</svg>
